<svg xmlns="http://www.w3.org/2000/svg" width="30.997" height="27.177" viewBox="0 0 30.997 27.177">
  <g id="Icon_32x_laundry" data-name="Icon/32x/laundry" transform="translate(1.087 1.087)">
    <path id="Vector" d="M16.306,25H3.261A3.271,3.271,0,0,1,0,21.742V3.261A3.271,3.271,0,0,1,3.261,0H16.306a3.271,3.271,0,0,1,3.261,3.261v18.48A3.271,3.271,0,0,1,16.306,25Z" fill="none" stroke="#6e6be8" stroke-width="2.174"/>
    <path id="Vector-2" data-name="Vector" d="M0,0H19.567" transform="translate(0 5.87)" fill="none" stroke="#6e6be8" stroke-width="2.174"/>
    <path id="Vector-3" data-name="Vector" d="M9.784,4.892A4.892,4.892,0,1,1,4.892,0,4.892,4.892,0,0,1,9.784,4.892Z" transform="translate(4.892 10.001)" fill="none" stroke="#f7658b" stroke-width="2.174"/>
    <path id="Vector-4" data-name="Vector" d="M1.739.87A.87.87,0,1,1,.87,0,.87.87,0,0,1,1.739.87Z" transform="translate(10.762 2.174)" fill="#f3a8a2"/>
    <path id="Vector-5" data-name="Vector" d="M1.739.87A.87.87,0,1,1,.87,0,.87.87,0,0,1,1.739.87Z" transform="translate(14.458 2.174)" fill="#f3a8a2"/>
    <path id="Vector-6" data-name="Vector" d="M0,0V5.87" transform="translate(7.283)" fill="none" stroke="#6e6be8" stroke-width="2.174"/>
    <path id="Vector-7" data-name="Vector" d="M7.936,4.131H0V0H7.936a1.256,1.256,0,0,1,1.3,1.3V2.826A1.2,1.2,0,0,1,7.936,4.131Z" transform="translate(19.567 16.524)" fill="none" stroke="#6e6be8" stroke-width="2.174"/>
    <path id="Vector-8" data-name="Vector" d="M2.392,0h7.936a1.256,1.256,0,0,1,1.3,1.3V2.826a1.256,1.256,0,0,1-1.3,1.3H0" transform="translate(17.176 20.655)" fill="none" stroke="#6e6be8" stroke-width="2.174"/>
    <path id="Vector-9" data-name="Vector" d="M7.936,4.131H0V0H7.936a1.256,1.256,0,0,1,1.3,1.3V2.826A1.2,1.2,0,0,1,7.936,4.131Z" transform="translate(19.567 12.393)" fill="none" stroke="#6e6be8" stroke-width="2.174"/>
  </g>
</svg>
