<svg xmlns="http://www.w3.org/2000/svg" width="26.919" height="31.254" viewBox="0 0 26.919 31.254">
  <g id="Icon_32x_clean" data-name="Icon/32x/clean" transform="translate(0.945 0.102)">
    <path id="Vector" d="M11.619,9.062l-.472,3.21a1.648,1.648,0,0,1-1.7,1.416H3.123a1.814,1.814,0,0,1-1.7-1.416L.008,1.888A1.688,1.688,0,0,1,1.707,0H9.165" transform="translate(0 16.425)" fill="none" stroke="#6e6be8" stroke-width="1.888"/>
    <path id="Vector-2" data-name="Vector" d="M0,4.626a4.626,4.626,0,0,1,9.251,0" transform="translate(1.613 11.706)" fill="none" stroke="#6e6be8" stroke-width="1.888"/>
    <path id="Vector-3" data-name="Vector" d="M0,0,2.738,25.11" transform="translate(15.489)" fill="none" stroke="#f7658b" stroke-width="1.888"/>
    <path id="Vector-4" data-name="Vector" d="M.661,0H11.894a.747.747,0,0,1,.755.472l1.322,3.021a.869.869,0,0,1-.755,1.227H0Z" transform="translate(10.958 25.488)" fill="none" stroke="#6e6be8" stroke-width="1.888"/>
    <path id="Vector-5" data-name="Vector" d="M3.682,9.062H1.416A1.39,1.39,0,0,1,0,7.646V1.416A1.39,1.39,0,0,1,1.416,0H3.682A1.39,1.39,0,0,1,5.1,1.416v6.23A1.39,1.39,0,0,1,3.682,9.062Z" transform="translate(7.749 16.425)" fill="none" stroke="#f3a8a2" stroke-width="1.888"/>
  </g>
</svg>
