<svg xmlns="http://www.w3.org/2000/svg" width="29.943" height="18.653" viewBox="0 0 29.943 18.653">
  <g id="Icon_32x_food" data-name="Icon/32x/food" transform="translate(0.86 0.86)">
    <path id="Vector" d="M1.929,5.2.21,2.187A1.41,1.41,0,0,1,.726.21,1.429,1.429,0,0,1,2.7.726L5.2,5.11" transform="translate(0.735 0.048)" fill="none" stroke="#f7658b" stroke-width="1.719"/>
    <path id="Vector-2" data-name="Vector" d="M0,4.556A4.586,4.586,0,0,1,4.556,0,4.586,4.586,0,0,1,9.112,4.556" transform="translate(13.496)" fill="none" stroke="#f7658b" stroke-width="1.719"/>
    <path id="Vector-3" data-name="Vector" d="M0,0V11.6" transform="translate(18.052 5.158)" fill="none" stroke="#f3a8a2" stroke-width="1.719"/>
    <path id="Vector-4" data-name="Vector" d="M0,0V11.6" transform="translate(22.779 5.158)" fill="none" stroke="#f3a8a2" stroke-width="1.719"/>
    <path id="Vector-5" data-name="Vector" d="M12.206,0H0" transform="translate(15.215 11.003)" fill="none" stroke="#f3a8a2" stroke-width="1.719"/>
    <path id="Vector-6" data-name="Vector" d="M1.719,0H16.676L15.215,11.6H0" transform="translate(11.433 5.158)" fill="none" stroke="#f7658b" stroke-width="1.719"/>
    <path id="Vector-7" data-name="Vector" d="M8.854,9.37H6.963A6.934,6.934,0,0,1,0,2.407V0H15.817V2.493A6.916,6.916,0,0,1,8.854,9.37Z" transform="translate(0 5.244)" fill="none" stroke="#6e6be8" stroke-width="1.719"/>
    <path id="Vector-8" data-name="Vector" d="M8.94,0V2.235a.954.954,0,0,1-.946.946H.946A.954.954,0,0,1,0,2.235V0" transform="translate(3.438 13.754)" fill="none" stroke="#6e6be8" stroke-width="1.719"/>
  </g>
</svg>
