<svg xmlns="http://www.w3.org/2000/svg" width="19.886" height="27.543" viewBox="0 0 19.886 27.543">
  <g id="Icon_32x_pest" data-name="Icon/32x/pest" transform="translate(1.143 1.143)">
    <path id="Vector" d="M12.229,6.171H0a6.115,6.115,0,1,1,12.229,0Z" transform="translate(2.743 4.114)" fill="none" stroke="#6e6be8" stroke-width="2.286"/>
    <path id="Vector-2" data-name="Vector" d="M2.514,1.257A1.257,1.257,0,1,1,1.257,0,1.257,1.257,0,0,1,2.514,1.257Z" transform="translate(3.314 13.829)" fill="#f7658b"/>
    <path id="Vector-3" data-name="Vector" d="M2.514,1.257A1.257,1.257,0,1,1,1.257,0,1.257,1.257,0,0,1,2.514,1.257Z" transform="translate(11.314 18.286)" fill="#f7658b"/>
    <path id="Vector-4" data-name="Vector" d="M1.829.914A.914.914,0,1,1,.914,0,.914.914,0,0,1,1.829.914Z" transform="translate(12.571 14.172)" fill="#f3a8a2"/>
    <path id="Vector-5" data-name="Vector" d="M1.829.914A.914.914,0,1,1,.914,0,.914.914,0,0,1,1.829.914Z" transform="translate(3.657 18.629)" fill="#f3a8a2"/>
    <path id="Vector-6" data-name="Vector" d="M14.971,0A9,9,0,0,1,17.6,6.286a8.8,8.8,0,1,1-17.6,0A9,9,0,0,1,2.629,0" transform="translate(0 10.172)" fill="none" stroke="#6e6be8" stroke-width="2.286"/>
    <path id="Vector-7" data-name="Vector" d="M0,0V14.971" transform="translate(8.8 10.286)" fill="none" stroke="#6e6be8" stroke-width="2.286"/>
    <path id="Vector-8" data-name="Vector" d="M4.229,4.114S3.429,0,0,0" transform="translate(4.571)" fill="none" stroke="#6e6be8" stroke-width="2.286"/>
    <path id="Vector-9" data-name="Vector" d="M0,4.114S.8,0,4.229,0" transform="translate(9.143)" fill="none" stroke="#6e6be8" stroke-width="2.286"/>
  </g>
</svg>
