<svg xmlns="http://www.w3.org/2000/svg" width="25" height="31.173" viewBox="0 0 25 31.173">
  <g id="Icon_32x_home" data-name="Icon/32x/home" transform="translate(0.617)">
    <path id="Vector" d="M6.379,11.523H0V3.189A3.205,3.205,0,0,1,3.189,0,3.205,3.205,0,0,1,6.379,3.189Z" transform="translate(8.539 14.712)" fill="none" stroke="#f7658b" stroke-width="2.058"/>
    <path id="Vector-2" data-name="Vector" d="M2.469,5.838V19.11H20.988V5.838l2.469,1.646L12.963.386a2.336,2.336,0,0,0-2.572,0L0,7.485" transform="translate(0 7.125)" fill="none" stroke="#6e6be8" stroke-width="2.058"/>
    <path id="Vector-3" data-name="Vector" d="M21.4,3.909H1.543A1.582,1.582,0,0,1,0,2.366V1.543A1.582,1.582,0,0,1,1.543,0H21.4a1.582,1.582,0,0,1,1.543,1.543v.926A1.434,1.434,0,0,1,21.4,3.909Z" transform="translate(0.411 26.234)" fill="none" stroke="#6e6be8" stroke-width="2.058"/>
    <path id="Vector-4" data-name="Vector" d="M0,0,3.189,2.263" transform="translate(0.411 5.35)" fill="none" stroke="#f3a8a2" stroke-width="2.058"/>
    <path id="Vector-5" data-name="Vector" d="M3.292,0,0,2.263" transform="translate(19.753 5.35)" fill="none" stroke="#f3a8a2" stroke-width="2.058"/>
    <path id="Vector-6" data-name="Vector" d="M0,0V2.984" transform="translate(11.934)" fill="none" stroke="#f3a8a2" stroke-width="2.058"/>
  </g>
</svg>
