<svg xmlns="http://www.w3.org/2000/svg" width="23.233" height="23.336" viewBox="0 0 23.233 23.336">
  <g id="Icon_32x_repair" data-name="Icon/32x/repair" transform="translate(0.808 1.319)">
    <path id="Vector" d="M8.51,8.4,0,0" transform="translate(0 0.052)" fill="none" stroke="#f3a8a2" stroke-width="2.3"/>
    <path id="Vector-2" data-name="Vector" d="M6.21,0l3.8,3.795a1.747,1.747,0,0,1,0,2.3L8.05,8.05a1.747,1.747,0,0,1-2.3,0L0,2.3" transform="translate(10.695 12.242)" fill="none" stroke="#f7658b" stroke-width="2.3"/>
    <path id="Vector-3" data-name="Vector" d="M19.837,3.617,17.423,6.032a2.153,2.153,0,0,1-2.99,0,2.153,2.153,0,0,1,0-2.99L16.847.627a6.315,6.315,0,0,0-7.13,1.15,6.775,6.775,0,0,0-1.61,6.44L.863,15.462A2.927,2.927,0,0,0,5,19.6l7.245-7.245a6.446,6.446,0,0,0,6.325-1.5A6.334,6.334,0,0,0,19.837,3.617Z" transform="translate(0.633)" fill="none" stroke="#6e6be8" stroke-width="2.3"/>
  </g>
</svg>
